<?xml version="1.0" encoding="UTF-8"?>
<svg width="64px" height="64px" viewBox="0 0 64 64" version="1.1" xmlns="http://www.w3.org/2000/svg" xmlns:xlink="http://www.w3.org/1999/xlink">
    <!-- Generator: Sketch 51.2 (57519) - http://www.bohemiancoding.com/sketch -->
    <title>tabler</title>
    <desc>Created with Sketch.</desc>
    <defs></defs>
    <g id="tabler" stroke="none" stroke-width="1" fill="none" fill-rule="evenodd">
        <g transform="translate(-1.000000, 0.000000)" fill-rule="nonzero" id="Shape">
            <path d="M63.61,14.202 C62.0354953,7.89255771 57.1093194,2.9659972 50.8,1.391 C39.0071092,-0.463243883 26.9968908,-0.463243883 15.204,1.391 C8.89313814,2.96470723 3.96518486,7.89150679 2.39,14.202 C0.535625059,25.9948805 0.535625059,38.0051195 2.39,49.798 C3.9648448,56.1079677 8.89190938,61.0346477 15.202,62.609 C26.9948908,64.4632439 39.0051092,64.4632439 50.798,62.609 C57.1080906,61.0346477 62.0351552,56.1079677 63.61,49.798 C65.4622802,38.0049559 65.4622802,25.9950441 63.61,14.202 Z" fill="#2D89EF"></path>
            <path d="M32.327,34.329 C29.4850441,38.7599642 25.6978559,42.5071974 21.237,45.302 C19.7779767,46.1869354 17.959605,46.2337262 16.457,45.425 C14.9659836,44.6295322 14.0249212,43.0867568 14,41.397 C13.9868983,39.7073698 14.893707,38.1443027 16.367,37.317 C18.680285,35.8906662 20.738129,34.0866726 22.455,31.98 C20.6949363,29.927646 18.6438481,28.1440618 16.367,26.686 C14.109,25.366 13.369,22.498 14.714,20.281 C16.059,18.065 18.98,17.338 21.237,18.659 C25.6890778,21.4290064 29.4756303,25.1465883 32.327,29.547 C33.2249789,31.014531 33.2249789,32.861469 32.327,34.329 Z M48.2,44 L36.8,44 C34.689,44 33,42.98 33,41 C33,39.02 34.71,38 36.8,38 L48.2,38 C50.311,38 52,39.02 52,41 C52,42.98 50.29,44 48.2,44 Z" fill="#FFFFFF"></path>
        </g>
    </g>
</svg>